<svg width="657" height="355" viewBox="0 0 657 355" fill="none" xmlns="http://www.w3.org/2000/svg">
<g clip-path="url(#clip0_2_116432)">
<rect width="656" height="355" transform="translate(0.293945)" fill="#DAE8FF"/>
<g clip-path="url(#clip1_2_116432)">
<g opacity="0.5" clip-path="url(#clip2_2_116432)">
<rect width="51.4733" height="29.4133" transform="matrix(-1 0 0 1 67.0618 154.904)" fill="#667AF9"/>
<path fill-rule="evenodd" clip-rule="evenodd" d="M434.728 59.3109H438.405V66.6642H442.082V74.0175H445.758V81.3708H449.435V88.7242H453.111V96.0775H456.788V103.431H460.465V110.784H464.141V118.137H467.818V125.491H471.495V132.844H475.171V140.197H478.848V147.551H482.525V154.904H486.201V162.257H489.878V169.611H493.555V176.964H497.231V184.317H500.908V191.671H504.585V199.024H508.261V206.377H364.872V199.024H368.548V191.671H372.225V184.317H375.902V176.964H379.578V169.611H383.255V162.257H386.932V154.904H390.608V147.551H394.285V140.197H397.962V132.844H401.638V125.491H405.315V118.137H408.992V110.784H412.668V103.431H416.345V96.0775H420.022V88.7242H423.698V81.3708H427.375V74.0175H431.052V66.6642H434.728V59.3109ZM449.435 176.964V132.844H453.111V140.197H456.788V147.551H460.465V154.904H464.141V162.257H467.818V169.611H471.495V176.964H449.435ZM401.638 176.964V169.611H405.315V162.257H408.992V154.904H412.668V147.551H416.345V140.197H420.022V132.844H423.698V176.964H401.638Z" fill="#667AF9"/>
<path d="M453.111 132.844H449.435V176.964H471.495V169.611H467.818V162.257H464.141V154.904H460.465V147.551H456.788V140.197H453.111V132.844Z" fill="#667AF9"/>
<path d="M401.638 169.611V176.964H423.698V132.844H420.022V140.197H416.345V147.551H412.668V154.904H408.992V162.257H405.315V169.611H401.638Z" fill="#667AF9"/>
<rect width="234.204" height="69.8566" transform="matrix(-1 0 0 1 301.265 114.461)" fill="#667AF9"/>
<rect width="51.4733" height="47.7966" transform="matrix(-1 0 0 1 19.2651 136.521)" fill="#667AF9"/>
<rect width="334.577" height="69.8566" transform="matrix(-1 0 0 1 673.712 136.521)" fill="#667AF9"/>
<path fill-rule="evenodd" clip-rule="evenodd" d="M651.652 62.9875H655.328V66.6642H659.005V70.3408H662.682V74.0175H666.358V77.6941H670.035V81.3708H673.712V85.0475H677.388V88.7241H681.065V92.4008H684.741V96.0775H688.418V99.7541H692.095V103.431H695.771V107.107H699.448V110.784H703.125V114.461H706.801V118.137H710.478V121.814H714.155V125.491H717.831V129.167H721.508V132.844H725.185V136.521H581.795V132.844H585.472V129.167H589.148V125.491H592.825V121.814H596.502V118.137H600.178V114.461H603.855V110.784H607.532V107.107H611.208V103.431H614.885V99.7541H618.562V96.0775H622.238V92.4008H625.915V88.7241H629.592V85.0475H633.268V81.3708H636.945V77.6941H640.622V74.0175H644.298V70.3408H647.975V66.6642H651.652V62.9875ZM666.358 121.814V99.7541H670.035V103.431H673.712V107.107H677.388V110.784H681.065V114.461H684.741V118.137H688.418V121.814H666.358ZM618.562 121.814V118.137H622.238V114.461H625.915V110.784H629.592V107.107H633.268V103.431H636.945V99.7541H640.622V121.814H618.562Z" fill="#667AF9"/>
<path d="M670.035 99.7541H666.358V121.814H688.418V118.137H684.741V114.461H681.065V110.784H677.388V107.107H673.712V103.431H670.035V99.7541Z" fill="#667AF9"/>
<path d="M618.562 118.137V121.814H640.622V99.7541H636.945V103.431H633.268V107.107H629.592V110.784H625.915V114.461H622.238V118.137H618.562Z" fill="#667AF9"/>
<path fill-rule="evenodd" clip-rule="evenodd" d="M-54.2682 62.9875H-50.5915V66.6642H-46.9148V70.3408H-43.2382V74.0175H-39.5615V77.6941H-35.8848V81.3708H-32.2082V85.0475H-28.5315V88.7241H-24.8548V92.4008H-21.1782V96.0775H-17.5015V99.7541H-13.8248V103.431H-10.1482V107.107H-6.47152V110.784H-2.79485V114.461H0.881811V118.137H4.55848V121.814H8.23514V125.491H11.9118V129.167H15.5885V132.844H19.2651V136.521H-124.125V132.844H-120.448V129.167H-116.771V125.491H-113.095V121.814H-109.418V118.137H-105.741V114.461H-102.065V110.784H-98.3881V107.107H-94.7115V103.431H-91.0348V99.7541H-87.3582V96.0775H-83.6815V92.4008H-80.0048V88.7241H-76.3282V85.0475H-72.6515V81.3708H-68.9748V77.6941H-65.2982V74.0175H-61.6215V70.3408H-57.9448V66.6642H-54.2682V62.9875ZM-39.5615 121.814V99.7541H-35.8848V103.431H-32.2082V107.107H-28.5315V110.784H-24.8548V114.461H-21.1782V118.137H-17.5015V121.814H-39.5615ZM-87.3582 121.814V118.137H-83.6815V114.461H-80.0048V110.784H-76.3282V107.107H-72.6515V103.431H-68.9748V99.7541H-65.2982V121.814H-87.3582Z" fill="#667AF9"/>
<path d="M-35.8848 99.7541H-39.5615V121.814H-17.5015V118.137H-21.1782V114.461H-24.8548V110.784H-28.5315V107.107H-32.2082V103.431H-35.8848V99.7541Z" fill="#667AF9"/>
<path d="M-87.3582 118.137V121.814H-65.2982V99.7541H-68.9748V103.431H-72.6515V107.107H-76.3282V110.784H-80.0048V114.461H-83.6815V118.137H-87.3582Z" fill="#667AF9"/>
<path fill-rule="evenodd" clip-rule="evenodd" d="M-21.1782 96.0775H-17.5015V99.7541H-13.8249V103.431H-10.1482V107.107H-6.47154V110.784H-2.79488V114.461H0.88179V118.137H4.55846V121.814H8.23512V125.491H11.9118V129.167H15.5885V132.844H19.2651V136.521H22.9418V140.197H26.6184V143.874H30.2951V147.551H33.9718V151.227H37.6484V154.904H41.3251V158.581H45.0018V162.257H48.6784V165.934H52.3551V169.611H-91.0348V165.934H-87.3582V162.257H-83.6815V158.581H-80.0048V154.904H-76.3282V151.227H-72.6515V147.551H-68.9748V143.874H-65.2982V140.197H-61.6215V136.521H-57.9449V132.844H-54.2682V129.167H-50.5915V125.491H-46.9149V121.814H-43.2382V118.137H-39.5615V114.461H-35.8849V110.784H-32.2082V107.107H-28.5315V103.431H-24.8549V99.7541H-21.1782V96.0775ZM-6.47154 154.904V132.844H-2.79488V136.521H0.88179V140.197H4.55846V143.874H8.23512V147.551H11.9118V151.227H15.5885V154.904H-6.47154ZM-54.2682 154.904V151.227H-50.5915V147.551H-46.9149V143.874H-43.2382V140.197H-39.5615V136.521H-35.8849V132.844H-32.2082V154.904H-54.2682Z" fill="#667AF9"/>
<path d="M-2.79488 132.844H-6.47154V154.904H15.5885V151.227H11.9118V147.551H8.23512V143.874H4.55846V140.197H0.88179V136.521H-2.79488V132.844Z" fill="#667AF9"/>
<path d="M-54.2682 151.227V154.904H-32.2082V132.844H-35.8849V136.521H-39.5615V140.197H-43.2382V143.874H-46.9149V147.551H-50.5915V151.227H-54.2682Z" fill="#667AF9"/>
<path fill-rule="evenodd" clip-rule="evenodd" d="M276.632 37.2509H280.308V44.6042H283.985V51.9575H287.662V59.3108H291.338V66.6642H295.015V74.0175H298.692V81.3708H302.368V88.7242H306.045V96.0775H309.722V103.431H313.398V110.784H317.075V118.137H320.752V125.491H324.428V132.844H328.105V140.197H331.782V147.551H335.458V154.904H339.135V162.257H342.812V169.611H346.488V176.964H350.165V184.317H206.775V176.964H210.452V169.611H214.128V162.257H217.805V154.904H221.482V147.551H225.158V140.197H228.835V132.844H232.512V125.491H236.188V118.137H239.865V110.784H243.542V103.431H247.218V96.0775H250.895V88.7242H254.572V81.3708H258.248V74.0175H261.925V66.6642H265.602V59.3108H269.278V51.9575H272.955V44.6042H276.632V37.2509ZM291.338 154.904V110.784H295.015V118.137H298.692V125.491H302.368V132.844H306.045V140.197H309.722V147.551H313.398V154.904H291.338ZM243.542 154.904V147.551H247.218V140.197H250.895V132.844H254.572V125.491H258.248V118.137H261.925V110.784H265.602V154.904H243.542Z" fill="#667AF9"/>
<path d="M295.015 110.784H291.338V154.904H313.398V147.551H309.722V140.197H306.045V132.844H302.368V125.491H298.692V118.137H295.015V110.784Z" fill="#667AF9"/>
<path d="M243.542 147.551V154.904H265.602V110.784H261.925V118.137H258.248V125.491H254.572V132.844H250.895V140.197H247.218V147.551H243.542Z" fill="#667AF9"/>
<path d="M74.4153 88.7241V96.0775H70.7386V103.431H67.0619V110.784H63.3853V118.137H59.7086V125.491H92.7986V118.137H89.1219V110.784H85.4453V103.431H81.7686V96.0775H78.0919V88.7241H74.4153Z" fill="#667AF9"/>
<path d="M59.7085 118.137V125.491H56.0318V132.844H52.3551V140.197H48.6785V147.551H45.0018V154.904H78.0918V147.551H74.4151V140.197H70.7385V132.844H67.0618V125.491H63.3851V118.137H59.7085Z" fill="#667AF9"/>
<path d="M478.848 118.137V121.814H475.171V125.491H471.495V129.167H467.818V132.844H464.141V136.521H497.231V132.844H493.555V129.167H489.878V125.491H486.201V121.814H482.525V118.137H478.848Z" fill="#667AF9"/>
<path d="M206.775 59.3109V62.9875H203.099V66.6642H199.422V70.3408H195.745V74.0175H192.069V77.6942H188.392V81.3708H184.715V85.0475H181.039V88.7242H177.362V92.4008H173.685V96.0775H170.009V99.7542H166.332V103.431H162.655V107.107H158.979V110.784H155.302V114.461H261.925V110.784H258.249V107.107H254.572V103.431H250.895V99.7542H247.219V96.0775H243.542V92.4008H239.865V88.7242H236.189V85.0475H232.512V81.3708H228.835V77.6942H225.159V74.0175H221.482V70.3408H217.805V66.6642H214.129V62.9875H210.452V59.3109H206.775Z" fill="#667AF9"/>
<path d="M541.352 92.4008V96.0774H537.675V99.7541H533.998V103.431H530.322V107.107H526.645V110.784H522.968V114.461H519.292V118.137H515.615V121.814H511.938V125.491H508.262V129.167H504.585V132.844H500.908V136.521H497.232V140.197H493.555V143.874H489.878V147.551H596.502V143.874H592.825V140.197H589.148V136.521H585.472V132.844H581.795V129.167H578.118V125.491H574.442V121.814H570.765V118.137H567.088V114.461H563.412V110.784H559.735V107.107H556.058V103.431H552.382V99.7541H548.705V96.0774H545.028V92.4008H541.352Z" fill="#667AF9"/>
<path d="M375.902 99.7542V103.431H372.225V107.107H368.548V110.784H364.872V114.461H361.195V118.137H357.518V121.814H353.842V125.491H350.165V129.167H346.488V132.844H342.812V136.521H339.135V140.197H335.458V143.874H331.782V147.551H328.105V151.227H324.428V154.904H431.052V151.227H427.375V147.551H423.698V143.874H420.022V140.197H416.345V136.521H412.668V132.844H408.992V129.167H405.315V125.491H401.638V121.814H397.962V118.137H394.285V114.461H390.608V110.784H386.932V107.107H383.255V103.431H379.578V99.7542H375.902Z" fill="#667AF9"/>
<path d="M173.685 92.4008V96.0774H170.008V99.7541H166.332V103.431H162.655V107.107H158.978V110.784H155.302V114.461H151.625V118.137H147.948V121.814H144.272V125.491H140.595V129.167H136.918V132.844H133.242V136.521H129.565V140.197H125.888V143.874H122.212V147.551H228.835V143.874H225.158V140.197H221.482V136.521H217.805V132.844H214.128V129.167H210.452V125.491H206.775V121.814H203.098V118.137H199.422V114.461H195.745V110.784H192.068V107.107H188.392V103.431H184.715V99.7541H181.038V96.0774H177.362V92.4008H173.685Z" fill="#667AF9"/>
<path d="M111.182 92.4008V88.7241H114.858V92.4008H118.535V96.0775H122.212V99.7541H125.888V103.431H129.565V107.107H133.242V110.784H136.918V114.461H140.595V118.137H144.272V121.814H147.948V125.491H78.0917V121.814H81.7684V118.137H85.4451V114.461H89.1217V110.784H92.7984V107.107H96.4751V103.431H100.152V99.7541H103.828V96.0775H107.505V92.4008H111.182Z" fill="#667AF9"/>
<rect x="607.531" y="176.964" width="51.4733" height="29.4133" fill="#00499C"/>
<path fill-rule="evenodd" clip-rule="evenodd" d="M239.865 81.3708H236.188V88.7242H232.512V96.0775H228.835V103.431H225.158V110.784H221.482V118.138H217.805V125.491H214.128V132.844H210.452V140.197H206.775V147.551H203.098V154.904H199.422V162.257H195.745V169.611H192.068V176.964H188.392V184.317H184.715V191.671H181.038V199.024H177.362V206.377H173.685V213.731H170.008V221.084H166.332V228.437H309.722V221.084H306.045V213.731H302.368V206.377H298.692V199.024H295.015V191.671H291.338V184.317H287.662V176.964H283.985V169.611H280.308V162.257H276.632V154.904H272.955V147.551H269.278V140.197H265.602V132.844H261.925V125.491H258.248V118.138H254.572V110.784H250.895V103.431H247.218V96.0775H243.542V88.7242H239.865V81.3708ZM225.158 199.024V154.904H221.482V162.257H217.805V169.611H214.128V176.964H210.452V184.317H206.775V191.671H203.098V199.024H225.158ZM272.955 199.024V191.671H269.278V184.317H265.602V176.964H261.925V169.611H258.248V162.257H254.572V154.904H250.895V199.024H272.955Z" fill="#00499C"/>
<path d="M221.482 154.904H225.158V199.024H203.098V191.671H206.775V184.317H210.452V176.964H214.128V169.611H217.805V162.257H221.482V154.904Z" fill="#00499C"/>
<path d="M272.955 191.671V199.024H250.895V154.904H254.572V162.257H258.248V169.611H261.925V176.964H265.602V184.317H269.278V191.671H272.955Z" fill="#00499C"/>
<rect x="373.328" y="136.521" width="234.204" height="69.8566" fill="#00499C"/>
<rect x="655.328" y="158.581" width="51.4733" height="47.7966" fill="#00499C"/>
<rect x="0.881836" y="158.581" width="334.577" height="69.8566" fill="#00499C"/>
<path fill-rule="evenodd" clip-rule="evenodd" d="M22.9417 85.0475H19.2651V88.7242H15.5884V92.4008H11.9118V96.0775H8.23509V99.7541H4.55843V103.431H0.88176V107.107H-2.79491V110.784H-6.47157V114.461H-10.1482V118.137H-13.8249V121.814H-17.5016V125.491H-21.1782V129.167H-24.8549V132.844H-28.5316V136.521H-32.2082V140.197H-35.8849V143.874H-39.5616V147.551H-43.2382V151.227H-46.9149V154.904H-50.5916V158.581H92.7984V154.904H89.1217V151.227H85.4451V147.551H81.7684V143.874H78.0917V140.197H74.4151V136.521H70.7384V132.844H67.0617V129.167H63.3851V125.491H59.7084V121.814H56.0317V118.137H52.3551V114.461H48.6784V110.784H45.0017V107.107H41.3251V103.431H37.6484V99.7541H33.9717V96.0775H30.2951V92.4008H26.6184V88.7242H22.9417V85.0475ZM8.23509 143.874V121.814H4.55843V125.491H0.88176V129.167H-2.79491V132.844H-6.47157V136.521H-10.1482V140.197H-13.8249V143.874H8.23509ZM56.0317 143.874V140.197H52.3551V136.521H48.6784V132.844H45.0017V129.167H41.3251V125.491H37.6484V121.814H33.9717V143.874H56.0317Z" fill="#00499C"/>
<path d="M4.55843 121.814H8.23509V143.874H-13.8249V140.197H-10.1482V136.521H-6.47157V132.844H-2.79491V129.167H0.88176V125.491H4.55843V121.814Z" fill="#00499C"/>
<path d="M56.0317 140.197V143.874H33.9717V121.814H37.6484V125.491H41.3251V129.167H45.0017V132.844H48.6784V136.521H52.3551V140.197H56.0317Z" fill="#00499C"/>
<path fill-rule="evenodd" clip-rule="evenodd" d="M728.861 85.0475H725.185V88.7242H721.508V92.4008H717.831V96.0775H714.155V99.7541H710.478V103.431H706.801V107.107H703.125V110.784H699.448V114.461H695.771V118.137H692.095V121.814H688.418V125.491H684.741V129.167H681.065V132.844H677.388V136.521H673.711V140.197H670.035V143.874H666.358V147.551H662.681V151.227H659.005V154.904H655.328V158.581H798.718V154.904H795.041V151.227H791.365V147.551H787.688V143.874H784.011V140.197H780.335V136.521H776.658V132.844H772.981V129.167H769.305V125.491H765.628V121.814H761.951V118.137H758.275V114.461H754.598V110.784H750.921V107.107H747.245V103.431H743.568V99.7541H739.891V96.0775H736.215V92.4008H732.538V88.7242H728.861V85.0475ZM714.155 143.874V121.814H710.478V125.491H706.801V129.167H703.125V132.844H699.448V136.521H695.771V140.197H692.095V143.874H714.155ZM761.951 143.874V140.197H758.275V136.521H754.598V132.844H750.921V129.167H747.245V125.491H743.568V121.814H739.891V143.874H761.951Z" fill="#00499C"/>
<path d="M710.478 121.814H714.155V143.874H692.095V140.197H695.771V136.521H699.448V132.844H703.125V129.167H706.801V125.491H710.478V121.814Z" fill="#00499C"/>
<path d="M761.951 140.197V143.874H739.891V121.814H743.568V125.491H747.245V129.167H750.921V132.844H754.598V136.521H758.275V140.197H761.951Z" fill="#00499C"/>
<path fill-rule="evenodd" clip-rule="evenodd" d="M695.772 118.138H692.095V121.814H688.418V125.491H684.742V129.168H681.065V132.844H677.388V136.521H673.712V140.198H670.035V143.874H666.358V147.551H662.682V151.227H659.005V154.904H655.328V158.581H651.652V162.257H647.975V165.934H644.298V169.611H640.622V173.287H636.945V176.964H633.268V180.641H629.592V184.317H625.915V187.994H622.238V191.671H765.628V187.994H761.952V184.317H758.275V180.641H754.598V176.964H750.922V173.287H747.245V169.611H743.568V165.934H739.892V162.257H736.215V158.581H732.538V154.904H728.862V151.227H725.185V147.551H721.508V143.874H717.832V140.198H714.155V136.521H710.478V132.844H706.802V129.168H703.125V125.491H699.448V121.814H695.772V118.138ZM681.065 176.964V154.904H677.388V158.581H673.712V162.257H670.035V165.934H666.358V169.611H662.682V173.287H659.005V176.964H681.065ZM728.862 176.964V173.287H725.185V169.611H721.508V165.934H717.832V162.257H714.155V158.581H710.478V154.904H706.802V176.964H728.862Z" fill="#00499C"/>
<path d="M677.388 154.904H681.065V176.964H659.005V173.287H662.682V169.611H666.358V165.934H670.035V162.257H673.712V158.581H677.388V154.904Z" fill="#00499C"/>
<path d="M728.862 173.287V176.964H706.802V154.904H710.478V158.581H714.155V162.257H717.832V165.934H721.508V169.611H725.185V173.287H728.862Z" fill="#00499C"/>
<path fill-rule="evenodd" clip-rule="evenodd" d="M397.962 59.3109H394.285V66.6642H390.608V74.0175H386.932V81.3708H383.255V88.7242H379.578V96.0775H375.902V103.431H372.225V110.784H368.548V118.137H364.872V125.491H361.195V132.844H357.518V140.197H353.842V147.551H350.165V154.904H346.488V162.257H342.812V169.611H339.135V176.964H335.458V184.317H331.782V191.671H328.105V199.024H324.428V206.377H467.818V199.024H464.141V191.671H460.465V184.317H456.788V176.964H453.111V169.611H449.435V162.257H445.758V154.904H442.082V147.551H438.405V140.197H434.728V132.844H431.052V125.491H427.375V118.137H423.698V110.784H420.022V103.431H416.345V96.0775H412.668V88.7242H408.992V81.3708H405.315V74.0175H401.638V66.6642H397.962V59.3109ZM383.255 176.964V132.844H379.578V140.197H375.902V147.551H372.225V154.904H368.548V162.257H364.872V169.611H361.195V176.964H383.255ZM431.052 176.964V169.611H427.375V162.257H423.698V154.904H420.022V147.551H416.345V140.197H412.668V132.844H408.992V176.964H431.052Z" fill="#00499C"/>
<path d="M379.578 132.844H383.255V176.964H361.195V169.611H364.872V162.257H368.548V154.904H372.225V147.551H375.902V140.197H379.578V132.844Z" fill="#00499C"/>
<path d="M431.052 169.611V176.964H408.992V132.844H412.668V140.197H416.345V147.551H420.022V154.904H423.698V162.257H427.375V169.611H431.052Z" fill="#00499C"/>
<path d="M600.178 110.784V118.138H603.855V125.491H607.532V132.844H611.208V140.198H614.885V147.551H581.795V140.198H585.472V132.844H589.148V125.491H592.825V118.138H596.502V110.784H600.178Z" fill="#00499C"/>
<path d="M614.885 140.198V147.551H618.562V154.904H622.238V162.257H625.915V169.611H629.592V176.964H596.502V169.611H600.178V162.257H603.855V154.904H607.532V147.551H611.208V140.198H614.885Z" fill="#00499C"/>
<path d="M195.745 140.198V143.874H199.422V147.551H203.098V151.228H206.775V154.904H210.452V158.581H177.362V154.904H181.038V151.228H184.715V147.551H188.392V143.874H192.068V140.198H195.745Z" fill="#00499C"/>
<path d="M467.818 81.3708V85.0475H471.495V88.7242H475.172V92.4008H478.848V96.0775H482.525V99.7542H486.202V103.431H489.878V107.108H493.555V110.784H497.232V114.461H500.908V118.138H504.585V121.814H508.262V125.491H511.938V129.167H515.615V132.844H519.292V136.521H412.668V132.844H416.345V129.167H420.022V125.491H423.698V121.814H427.375V118.138H431.052V114.461H434.728V110.784H438.405V107.108H442.082V103.431H445.758V99.7542H449.435V96.0775H453.112V92.4008H456.788V88.7242H460.465V85.0475H464.142V81.3708H467.818Z" fill="#00499C"/>
<path d="M133.242 114.461V118.137H136.918V121.814H140.595V125.491H144.272V129.167H147.948V132.844H151.625V136.521H155.302V140.197H158.978V143.874H162.655V147.551H166.332V151.227H170.008V154.904H173.685V158.581H177.362V162.257H181.038V165.934H184.715V169.611H78.0918V165.934H81.7685V162.257H85.4451V158.581H89.1218V154.904H92.7985V151.227H96.4751V147.551H100.152V143.874H103.828V140.197H107.505V136.521H111.182V132.844H114.858V129.167H118.535V125.491H122.212V121.814H125.888V118.137H129.565V114.461H133.242Z" fill="#00499C"/>
<path d="M298.692 121.814V125.491H302.368V129.167H306.045V132.844H309.722V136.521H313.398V140.197H317.075V143.874H320.752V147.551H324.428V151.227H328.105V154.904H331.782V158.581H335.458V162.257H339.135V165.934H342.812V169.611H346.488V173.287H350.165V176.964H243.542V173.287H247.218V169.611H250.895V165.934H254.572V162.257H258.248V158.581H261.925V154.904H265.602V151.227H269.278V147.551H272.955V143.874H276.632V140.197H280.308V136.521H283.985V132.844H287.662V129.167H291.338V125.491H295.015V121.814H298.692Z" fill="#00499C"/>
<path d="M500.908 114.461V118.137H504.585V121.814H508.262V125.491H511.938V129.167H515.615V132.844H519.292V136.521H522.968V140.197H526.645V143.874H530.322V147.551H533.998V151.227H537.675V154.904H541.352V158.581H545.028V162.257H548.705V165.934H552.382V169.611H445.758V165.934H449.435V162.257H453.112V158.581H456.788V154.904H460.465V151.227H464.142V147.551H467.818V143.874H471.495V140.197H475.172V136.521H478.848V132.844H482.525V129.167H486.202V125.491H489.878V121.814H493.555V118.137H497.232V114.461H500.908Z" fill="#00499C"/>
<path d="M563.411 114.461V110.784H559.735V114.461H556.058V118.138H552.381V121.814H548.705V125.491H545.028V129.168H541.351V132.844H537.675V136.521H533.998V140.198H530.321V143.874H526.645V147.551H596.501V143.874H592.825V140.198H589.148V136.521H585.471V132.844H581.795V129.168H578.118V125.491H574.441V121.814H570.765V118.138H567.088V114.461H563.411Z" fill="#00499C"/>
<rect width="13.4076" height="2.68153" transform="matrix(-1 0 0 1 599.183 43.1382)" fill="white"/>
<rect width="24.1337" height="2.68153" transform="matrix(-1 0 0 1 604.546 45.8198)" fill="white"/>
<rect width="29.4968" height="2.68153" transform="matrix(-1 0 0 1 607.228 48.5013)" fill="white"/>
<rect width="34.8598" height="2.68153" transform="matrix(-1 0 0 1 609.909 51.1828)" fill="white"/>
<rect width="40.2229" height="2.68153" transform="matrix(-1 0 0 1 612.591 53.8643)" fill="white"/>
<rect width="45.586" height="2.68153" transform="matrix(-1 0 0 1 617.954 56.5458)" fill="white"/>
<rect width="53.6305" height="2.68153" transform="matrix(-1 0 0 1 623.317 59.2274)" fill="white"/>
<rect width="56.3121" height="2.68153" transform="matrix(-1 0 0 1 625.999 61.9089)" fill="white"/>
<rect width="56.3121" height="2.68153" transform="matrix(-1 0 0 1 625.999 64.5905)" fill="white"/>
<rect width="58.9936" height="2.68153" transform="matrix(-1 0 0 1 628.68 67.272)" fill="white"/>
<rect width="61.6751" height="2.68153" transform="matrix(-1 0 0 1 628.68 69.9535)" fill="white"/>
<rect width="64.3566" height="2.68153" transform="matrix(-1 0 0 1 628.68 72.635)" fill="white"/>
<rect width="64.3566" height="2.68153" transform="matrix(-1 0 0 1 628.68 75.3165)" fill="white"/>
<rect width="61.6751" height="2.68153" transform="matrix(-1 0 0 1 625.999 77.998)" fill="white"/>
<rect width="61.6751" height="2.68153" transform="matrix(-1 0 0 1 625.999 80.6796)" fill="white"/>
<rect width="56.3121" height="2.68153" transform="matrix(-1 0 0 1 623.317 83.3611)" fill="white"/>
<rect width="48.2675" height="2.68153" transform="matrix(-1 0 0 1 617.954 86.0426)" fill="white"/>
</g>
<path fill-rule="evenodd" clip-rule="evenodd" d="M600.178 125.491H603.855V132.844H607.531V136.521H603.855V136.521H600.178V136.521H596.502V132.844H600.178V132.844H596.502V129.168H600.178V125.491Z" fill="#0B5027"/>
<path d="M214.128 371.827H166.332V368.151H151.625V364.474H140.595V360.797H133.242V357.121H125.888V353.444H122.212V349.767H114.858V346.091H111.182V342.414H103.828V338.737H100.152V335.061H96.475V331.384H92.7984V324.031H89.1217V320.354H85.4451V313.001H81.7684V309.324H78.0917V301.971H74.4151V294.617H70.7384V283.587H67.0617V268.881H63.3851V221.084H67.0617V206.377H70.7384V195.347H74.4151V187.994H78.0917V180.641H81.7684V176.964H85.4451V169.611H89.1217V165.934H92.7984V158.581H96.475V154.904H100.152V151.227H103.828V147.551H111.182V143.874H114.858V140.197H122.212V136.521H125.888V132.844H133.242V129.167H140.595V125.491H151.625V121.814H166.332V118.137H214.128V121.814H228.835V125.491H239.865V129.167H247.218V132.844H254.572V136.521H258.248V140.197H265.602V143.874H269.278V147.551H276.632V151.227H280.308V154.904H283.985V158.581H287.662V165.934H291.338V169.611H295.015V176.964H298.692V180.641H302.368V187.994H306.045V195.347H309.722V206.377H313.398V221.084H317.075V268.881H313.398V283.587H309.722V294.617H306.045V301.971H302.368V309.324H298.692V313.001H295.015V320.354H291.338V324.031H287.662V331.384H283.985V335.061H280.308V338.737H276.632V342.414H269.278V346.091H265.602V349.767H258.248V353.444H254.572V357.121H247.218V360.797H239.865V364.474H228.835V368.151H214.128V371.827Z" fill="#068940"/>
<path d="M765.628 294.617H761.949V283.587L758.273 283.586V276.234L754.597 276.234V268.882H750.921V261.527H747.245V254.174H743.566V250.498H739.89V243.143H736.214V235.791L732.538 235.791V232.115H728.861V228.439L725.183 228.438V221.084H721.506V217.407L717.83 217.407V213.731L714.154 213.731V210.055H710.478V206.376H706.802V202.7H703.123V199.024H699.447V195.348L695.771 195.347V191.672H692.095V187.992H688.418V184.317H684.74V180.64H681.063V176.964L673.711 176.964V173.288H670.035V169.612H666.359V165.933H659.004V162.257H651.652V158.581H647.975V154.905H640.62V151.228H633.268V147.55H625.913V143.873H618.561V140.197H607.53V136.521H600.177V132.845H589.149V129.169H574.442V125.49H556.058V121.814H530.323V118.138H486.201V121.814H460.465V125.49H442.082V129.169H427.374V132.845H416.346V136.521H408.991V140.197H397.963V143.873H390.608V147.55H383.255V151.228H375.903V154.905H368.548V158.581H364.872V162.257H357.52V165.933H350.165V169.612H346.488V173.288H342.812V176.964H335.46V180.64H331.781V184.316H328.105V187.992H324.429V191.671H320.753V195.347H317.077V199.024H313.4V202.7H309.722V206.376H306.046V210.055H302.369V213.731H298.693V217.407H295.017V221.083H291.338V228.438H287.662V232.115H283.986V235.791H280.31V243.143H276.634V250.498H272.955V254.174H269.279V261.527H265.603V268.882H261.926V276.234H258.25V283.586H254.571V294.617H250.895V301.97H247.219V313.001H243.543V327.708H239.867V346.092H236.191V371.828H232.512V415.947L236.191 415.947V441.683L239.867 441.683V460.066L243.543 460.067V474.774L247.219 474.774V485.805L250.895 485.805V493.157L254.571 493.158V504.189H258.25V511.541L261.926 511.541V518.893H265.603V526.248H269.279V533.601H272.955V537.276L276.634 537.277V544.632H280.31V551.984H283.986V555.66H287.662V559.337H291.338V566.691H295.017V570.367L298.693 570.368V574.044L302.369 574.044V577.72H306.046V581.399H309.722V585.075L313.4 585.075V588.751L317.077 588.751V592.427L320.753 592.427V596.104H324.429V599.782H328.105V603.459H331.781V607.135H335.46V610.811L342.812 610.811V614.487H346.488V618.163H350.165V621.842H357.52V625.518H364.872V629.194H368.548V632.87H375.903V636.546H383.255V640.225H390.608V643.901H397.963V647.578H408.991V651.254H416.346V654.93H427.374V658.606H442.082V662.285H460.465V665.961H486.201V669.637H530.323V665.961H556.058V662.285H574.442V658.606H589.149V654.93H600.177V651.254H607.53V647.578H618.561V643.901H625.913V640.225H633.268V636.546H640.62V632.87H647.975V629.194H651.652V625.518H659.004V621.842H666.359V618.163H670.035V614.487H673.711V610.811H681.063V607.135H684.74V603.459H688.418V599.782H692.095V596.104H695.771V592.427H699.447V588.751H703.123V585.075H706.802V581.399H710.478V577.72H714.154V574.044H717.83V570.368H721.506V566.691H725.183V559.337H728.861V555.66H732.538V551.984H736.214V544.632H739.89V537.277H743.566V533.601H747.245V526.248H750.921V518.893H754.597V511.541H758.273V504.189H761.949V493.158H765.628V485.805H769.304V474.774H772.98V460.067H776.657V441.683H780.333V415.947H784.012V371.828H780.333V346.092H776.657V327.709H772.98V313.001H769.304V301.97H765.628V294.617Z" fill="#068940"/>
<path fill-rule="evenodd" clip-rule="evenodd" d="M488.04 178.306H484.363V181.982H488.04V178.306ZM480.686 185.659V181.982H491.716V185.659H480.686ZM477.01 185.659V189.336H495.393V185.659H477.01ZM473.333 196.689V200.366H499.07V196.689H473.333ZM495.393 193.012V196.689H477.01V193.012H480.686V189.336H491.716V193.012H495.393Z" fill="#0B5027"/>
<path fill-rule="evenodd" clip-rule="evenodd" d="M203.098 147.551H199.422V151.228H203.098V147.551ZM195.745 154.904V151.228H206.775V154.904H195.745ZM192.068 154.904V158.581H210.452V154.904H192.068ZM188.392 165.934V169.611H214.128V165.934H188.392ZM210.452 162.258V165.934H192.068V162.258H210.452ZM206.775 162.258V158.581H195.745V162.258H206.775Z" fill="#0B5027"/>
<path fill-rule="evenodd" clip-rule="evenodd" d="M521.13 182.479H517.453V186.156H521.13V182.479ZM513.776 189.832V186.156H524.806V189.832H528.483V193.509H510.1V189.832H513.776ZM532.16 204.539V200.863H506.423V204.539H532.16ZM528.483 197.186V200.862H510.1V197.186H528.483ZM524.806 197.186V193.509H513.776V197.186H524.806Z" fill="#0B5027"/>
<path fill-rule="evenodd" clip-rule="evenodd" d="M596.501 176.964H592.825V180.641H596.501V176.964ZM589.148 184.318V180.641H600.178V184.318H589.148ZM585.472 184.318V187.994H603.855V184.318H585.472ZM581.795 195.348V199.024H607.532V195.348H581.795ZM603.855 191.671V195.348H585.472V191.671H603.855ZM600.178 191.671V187.994H589.148V191.671H600.178Z" fill="#0B5027"/>
<path d="M214.128 169.61H210.452V165.934H206.776V162.258H199.421V158.582H192.068V154.903H184.713V151.227H177.361V147.551H166.33V143.874H158.978V140.198H147.949V136.522H133.242V132.843H114.858V129.167H89.1228V125.491H45.0009V129.167H19.2652V132.843H0.881836V136.522V368.458L515.615 368.458L519.291 368.458H706.802V136.522H692.094V140.198H681.066V143.874H673.711V147.551H662.682V151.227H655.327V154.903H647.975V158.582H640.623V162.258H633.268V165.934H629.592V169.61H622.239V173.286H614.884V176.965H611.208V180.641H607.532V184.317H600.18L600.178 184.318V187.993H596.501V191.67H592.825V195.346H589.149L589.148 195.348V199.024H585.471V202.701L581.796 202.701L581.795 202.701V206.377L578.12 206.378H574.442V210.054H567.088V213.731H552.382V217.408H533.998V213.732H515.615V210.053H500.908V206.377H489.879V202.701H482.524V199.025H471.496V195.348L471.495 195.346H464.141L464.141 191.672L464.141 191.67H456.788L456.789 187.993H453.112V184.318L449.436 184.317H445.757V180.642L442.081 180.641H438.405V176.965L438.405 176.963H431.053V173.289H431.05V173.287H423.698L423.698 169.611L412.666 169.611V165.934H405.314V162.258H394.286V158.582H379.578V154.903H361.195V151.227H335.459V147.551H291.337V151.227H265.602V154.903H247.218V158.582H232.511V162.258H221.483V165.934H214.128V169.61Z" fill="#8DD122"/>
<path fill-rule="evenodd" clip-rule="evenodd" d="M63.3852 103.431H59.7085V107.108H63.3852V103.431ZM56.0317 110.784V107.108H67.0617V110.784H56.0317ZM52.3551 110.784V114.461H70.7384V110.784H52.3551ZM48.6785 121.814V125.491H74.4151V121.814H70.7384V118.138H52.3551V121.814H48.6785ZM67.0617 118.138V114.461H56.0317V118.138H67.0617Z" fill="#068940"/>
<path fill-rule="evenodd" clip-rule="evenodd" d="M100.152 107.108H96.4751V110.784H100.152V107.108ZM92.7985 114.461V110.784H103.829V114.461H92.7985ZM89.1219 114.461V118.138H107.505V114.461H89.1219ZM85.4451 125.491V129.168H111.182V125.491H85.4451ZM107.505 121.814V125.491H89.1219V121.814H92.7985V118.138H103.829V121.814H107.505Z" fill="#068940"/>
<path fill-rule="evenodd" clip-rule="evenodd" d="M309.722 125.491H306.045V129.168H309.722V125.491ZM302.368 132.844V129.168H313.398V132.844H302.368ZM298.692 132.844V136.521H317.075V132.844H298.692ZM295.015 143.874V147.551H320.752V143.874H295.015ZM317.075 140.198V143.874H298.692V140.198H317.075ZM313.398 140.198V136.521H302.368V140.198H313.398Z" fill="#068940"/>
<path fill-rule="evenodd" clip-rule="evenodd" d="M350.165 129.168H346.488V132.844H350.165V129.168ZM342.812 136.521V132.844H353.842V136.521H342.812ZM339.135 136.521V140.198H357.518V136.521H339.135ZM335.458 147.551V151.228H361.195V147.551H335.458ZM357.518 143.874V147.551H339.135V143.874H357.518ZM353.842 143.874V140.198H342.812V143.874H353.842Z" fill="#068940"/>
<path fill-rule="evenodd" clip-rule="evenodd" d="M158.978 110.784H162.655V118.138H166.332V121.814H162.655V121.814H158.978V121.814H155.302V118.138H158.978V118.138H155.302V114.461H158.978V110.784Z" fill="#0B5027"/>
<path fill-rule="evenodd" clip-rule="evenodd" d="M449.435 114.461H453.112V121.814H456.788V125.491H453.112V125.491H449.435V114.461ZM449.435 118.138H445.758V121.814V121.814V125.491H449.435V121.814V121.814V118.138Z" fill="#0B5027"/>
<path fill-rule="evenodd" clip-rule="evenodd" d="M482.525 110.784H478.848V118.138H475.172V121.814H478.848V121.814H482.525V121.814H486.202V118.138H482.525V118.138H486.202V114.461H482.525V110.784Z" fill="#0B5027"/>
<path fill-rule="evenodd" clip-rule="evenodd" d="M199.422 107.108H203.099V110.784H206.775V114.461H203.099V114.461H206.775H206.775H210.452V118.138H206.775H206.775H203.098V118.138H199.422V107.108ZM195.745 114.461H199.422V118.138H195.745V114.461Z" fill="#0B5027"/>
<path fill-rule="evenodd" clip-rule="evenodd" d="M192.068 107.108H188.392V114.461H184.715V118.138H188.392V118.138H192.068V118.138H195.745V114.461H192.068V114.461H195.745V110.784H192.068V107.108Z" fill="#0B5027"/>
<rect x="79.8541" y="25.795" width="14.1708" height="2.83416" fill="white"/>
<rect x="74.1859" y="28.6292" width="25.5075" height="2.83416" fill="white"/>
<rect x="71.3518" y="31.4633" width="31.1758" height="2.83416" fill="white"/>
<rect x="68.5177" y="34.2975" width="36.8441" height="2.83416" fill="white"/>
<rect x="65.6833" y="37.1317" width="42.5125" height="2.83416" fill="white"/>
<rect x="60.0151" y="39.9658" width="48.1808" height="2.83416" fill="white"/>
<rect x="54.3467" y="42.8" width="56.6833" height="2.83416" fill="white"/>
<rect x="51.5126" y="45.6342" width="59.5175" height="2.83416" fill="white"/>
<rect x="51.5126" y="48.4684" width="59.5175" height="2.83416" fill="white"/>
<rect x="48.6785" y="51.3025" width="62.3516" height="2.83416" fill="white"/>
<rect x="48.6785" y="54.1367" width="65.1858" height="2.83416" fill="white"/>
<rect x="48.6785" y="56.9708" width="68.0199" height="2.83416" fill="white"/>
<rect x="48.6785" y="59.805" width="68.0199" height="2.83416" fill="white"/>
<rect x="51.5126" y="62.6392" width="65.1858" height="2.83416" fill="white"/>
<rect x="51.5126" y="65.4733" width="65.1858" height="2.83416" fill="white"/>
<rect x="54.3467" y="68.3075" width="59.5175" height="2.83416" fill="white"/>
<rect x="60.0151" y="71.1416" width="51.015" height="2.83416" fill="white"/>
</g>
<path d="M22.6604 262.11H-5.77271V267.023H22.6604V262.11Z" fill="white"/>
<path d="M77.5689 262.11H49.1357V267.023H77.5689V262.11Z" fill="white"/>
<path d="M132.477 262.11H104.044V267.023H132.477V262.11Z" fill="white"/>
<path d="M187.386 262.11H158.953V267.023H187.386V262.11Z" fill="white"/>
<path d="M242.294 262.11H213.861V267.023H242.294V262.11Z" fill="white"/>
<path d="M297.203 262.11H268.77V267.023H297.203V262.11Z" fill="white"/>
<path d="M352.111 262.11H323.678V267.023H352.111V262.11Z" fill="white"/>
<path d="M407.02 262.11H378.587V267.023H407.02V262.11Z" fill="white"/>
<path d="M461.928 262.11H433.495V267.023H461.928V262.11Z" fill="white"/>
<path d="M521.589 262.11H493.156V267.023H521.589V262.11Z" fill="white"/>
<path d="M576.497 262.11H548.064V267.023H576.497V262.11Z" fill="white"/>
<path d="M631.406 262.11H602.973V267.023H631.406V262.11Z" fill="white"/>
</g>
<defs>
<clipPath id="clip0_2_116432">
<rect width="656" height="355" fill="white" transform="translate(0.293945)"/>
</clipPath>
<clipPath id="clip1_2_116432">
<rect width="655" height="228" fill="white" transform="translate(0.587891 -31)"/>
</clipPath>
<clipPath id="clip2_2_116432">
<rect width="705.92" height="183.833" fill="white" transform="translate(0.881836 0.484192)"/>
</clipPath>
</defs>
</svg>
