<svg width="96" height="83" viewBox="0 0 96 83" fill="none" xmlns="http://www.w3.org/2000/svg">
<path d="M9.73481 0.749023H4.94897V5.53486H9.73481V0.749023Z" fill="#EAB118"/>
<path d="M52.807 0.749023H43.2354V5.53486H52.807V0.749023Z" fill="#EAB118"/>
<path d="M91.0939 0.749023H86.3081V5.53486H91.0939V0.749023Z" fill="#EAB118"/>
<path d="M9.73481 5.53485H4.94897V10.3207H9.73481V5.53485Z" fill="#EAB118"/>
<path d="M52.807 5.53485H43.2354V10.3207H52.807V5.53485Z" fill="#EAB118"/>
<path d="M91.0939 5.53485H86.3081V10.3207H91.0939V5.53485Z" fill="#EAB118"/>
<path d="M14.5206 10.3207H4.94897V15.1065H14.5206V10.3207Z" fill="#EAB118"/>
<path d="M57.593 10.3207H38.4497V15.1065H57.593V10.3207Z" fill="#EAB118"/>
<path d="M91.0936 10.3207H81.522V15.1065H91.0936V10.3207Z" fill="#EAB118"/>
<path d="M9.73451 15.1065H0.162842V19.8923H9.73451V15.1065Z" fill="#257CED"/>
<path d="M14.5207 15.1065H9.73486V19.8923H14.5207V15.1065Z" fill="#DB8323"/>
<path d="M19.3068 15.1065H14.521V19.8923H19.3068V15.1065Z" fill="#EAB118"/>
<path d="M38.4498 15.1065H33.6639V19.8923H38.4498V15.1065Z" fill="#EAB118"/>
<path d="M57.593 15.1065H38.4497V19.8923H57.593V15.1065Z" fill="#34AC80"/>
<path d="M62.3791 15.1065H57.5933V19.8923H62.3791V15.1065Z" fill="#EAB118"/>
<path d="M81.5222 15.1065H76.7363V19.8923H81.5222V15.1065Z" fill="#EAB118"/>
<path d="M86.3078 15.1065H81.522V19.8923H86.3078V15.1065Z" fill="#DB8323"/>
<path d="M95.8798 15.1065H86.3081V19.8923H95.8798V15.1065Z" fill="#FF1A0B"/>
<path d="M4.94868 19.8923H0.162842V24.6782H4.94868V19.8923Z" fill="#257CED"/>
<path d="M9.73481 19.8923H4.94897V24.6782H9.73481V19.8923Z" fill="#00499C"/>
<path d="M14.5207 19.8923H9.73486V24.6782H14.5207V19.8923Z" fill="#DB8323"/>
<path d="M24.0927 19.8923H14.521V24.6782H24.0927V19.8923Z" fill="#EAB118"/>
<path d="M38.4495 19.8923H28.8778V24.6782H38.4495V19.8923Z" fill="#EAB118"/>
<path d="M43.2355 19.8923H38.4497V24.6782H43.2355V19.8923Z" fill="#34AC80"/>
<path d="M52.807 19.8923H43.2354V24.6782H52.807V19.8923Z" fill="#42FFB0"/>
<path d="M57.5932 19.8923H52.8074V24.6782H57.5932V19.8923Z" fill="#068940"/>
<path d="M67.1649 19.8923H57.5933V24.6782H67.1649V19.8923Z" fill="#EAB118"/>
<path d="M81.5224 19.8923H71.9507V24.6782H81.5224V19.8923Z" fill="#EAB118"/>
<path d="M86.3078 19.8923H81.522V24.6782H86.3078V19.8923Z" fill="#DB8323"/>
<path d="M91.0939 19.8923H86.3081V24.6782H91.0939V19.8923Z" fill="#D22209"/>
<path d="M95.8796 19.8923H91.0938V24.6782H95.8796V19.8923Z" fill="#FF1A0B"/>
<path d="M9.73451 24.6782H0.162842V29.464H9.73451V24.6782Z" fill="#00499C"/>
<path d="M14.5207 24.6782H9.73486V29.464H14.5207V24.6782Z" fill="#DB8323"/>
<path d="M38.4502 24.6782H14.521V29.464H38.4502V24.6782Z" fill="#EAB118"/>
<path d="M48.0214 24.6782H38.4497V29.464H48.0214V24.6782Z" fill="#34AC80"/>
<path d="M57.5929 24.6782H48.0212V29.464H57.5929V24.6782Z" fill="#068940"/>
<path d="M81.5224 24.6782H57.5933V29.464H81.5224V24.6782Z" fill="#EAB118"/>
<path d="M86.3078 24.6782H81.522V29.464H86.3078V24.6782Z" fill="#DB8323"/>
<path d="M95.8798 24.6782H86.3081V29.464H95.8798V24.6782Z" fill="#D22209"/>
<path d="M91.094 29.4641H4.94897V34.2499H91.094V29.4641Z" fill="#EAB118"/>
<path d="M91.094 34.2499H4.94897V39.0357H91.094V34.2499Z" fill="#EAB118"/>
<path d="M91.094 39.0357H4.94897V43.8215H91.094V39.0357Z" fill="#EAB118"/>
<path d="M91.094 43.8215H4.94897V48.6074H91.094V43.8215Z" fill="#EAB118"/>
<path d="M91.094 48.6074H4.94897V53.3932H91.094V48.6074Z" fill="#EAB118"/>
<path d="M91.094 53.3932H4.94897V58.179H91.094V53.3932Z" fill="#EAB118"/>
<path d="M91.094 58.179H4.94897V62.9649H91.094V58.179Z" fill="#EAB118"/>
<path d="M91.094 62.9648H4.94897V67.7507H91.094V62.9648Z" fill="#EAB118"/>
<path d="M14.5207 67.7507H9.73486V72.5365H14.5207V67.7507Z" fill="#6E3206"/>
<path d="M38.4502 67.7507H14.521V72.5365H38.4502V67.7507Z" fill="#DB8323"/>
<path d="M57.593 67.7507H38.4497V72.5365H57.593V67.7507Z" fill="#6E3206"/>
<path d="M81.5224 67.7507H57.5933V72.5365H81.5224V67.7507Z" fill="#DB8323"/>
<path d="M86.3078 67.7507H81.522V72.5365H86.3078V67.7507Z" fill="#6E3206"/>
<path d="M91.094 72.5365H4.94897V77.3223H91.094V72.5365Z" fill="#EAB118"/>
<path d="M91.094 77.3224H4.94897V82.1082H91.094V77.3224Z" fill="#EAB118"/>
</svg>
